<?xml version="1.0" standalone="no"?>
<!DOCTYPE svg PUBLIC "-//W3C//DTD SVG 20010904//EN"
 "http://www.w3.org/TR/2001/REC-SVG-20010904/DTD/svg10.dtd">
<svg version="1.0" xmlns="http://www.w3.org/2000/svg"
 width="310.000000pt" height="310.000000pt" viewBox="0 0 310.000000 310.000000"
 preserveAspectRatio="xMidYMid meet">
<metadata>
Created by potrace 1.11, written by Peter Selinger 2001-2013
</metadata>
<g transform="translate(0.000000,310.000000) scale(0.100000,-0.100000)"
fill="#000000" stroke="none">
<path d="M0 2325 l0 -775 775 0 775 0 0 -775 0 -775 775 0 775 0 0 775 0 775
-775 0 -775 0 0 775 0 775 -775 0 -775 0 0 -775z m1077 478 c-4 -38 -7 -103
-7 -145 0 -70 -2 -78 -19 -78 -14 0 -21 10 -28 37 -7 29 -18 43 -48 60 -113
64 -236 84 -304 49 -41 -21 -65 -76 -58 -129 11 -80 62 -122 244 -198 146 -61
220 -119 249 -194 26 -68 16 -197 -19 -258 -89 -151 -295 -207 -547 -151 -58
13 -66 13 -76 -1 -12 -16 -44 -21 -44 -6 0 5 20 64 44 132 46 131 72 161 70
82 l-1 -42 71 -33 c64 -29 80 -33 166 -33 80 0 102 4 138 23 60 32 84 74 79
139 -7 99 -50 137 -264 233 -78 35 -158 76 -177 92 -52 43 -86 119 -86 192 1
123 76 215 212 258 70 21 222 26 293 8 58 -14 72 -12 78 10 3 11 13 20 23 20
15 0 16 -8 11 -67z m1445 -1546 c101 -49 138 -116 138 -244 0 -85 -27 -143
-88 -190 l-41 -31 30 -12 c56 -24 116 -93 135 -156 29 -101 2 -226 -63 -287
-69 -65 -261 -96 -515 -83 -134 7 -148 10 -148 26 0 11 9 20 22 22 14 2 25 14
31 33 14 40 14 840 0 880 -6 19 -17 31 -31 33 -14 2 -22 10 -22 23 0 20 5 20
248 17 l247 -3 57 -28z"/>
<path d="M2214 1183 c-19 -4 -22 -13 -28 -110 -3 -58 -6 -134 -6 -168 l0 -62
53 -6 c62 -8 153 5 197 28 54 28 71 69 68 157 -3 72 -5 79 -37 112 -46 48
-149 68 -247 49z"/>
<path d="M2183 558 c4 -100 10 -184 13 -187 3 -3 54 -6 112 -6 122 0 170 17
209 73 27 41 38 117 23 170 -26 97 -95 132 -263 132 l-100 0 6 -182z"/>
<path d="M1975 2830 c-8 -13 3 -30 20 -30 37 0 40 -33 40 -460 0 -228 -4 -432
-8 -452 -6 -27 -13 -38 -30 -40 -12 -2 -23 -10 -25 -19 -2 -14 18 -17 155 -22
363 -15 525 36 564 176 19 70 15 176 -9 223 -24 47 -70 94 -116 119 l-33 18
40 31 c59 45 81 95 85 191 3 72 0 86 -25 135 -34 66 -84 103 -168 125 -70 18
-479 22 -490 5z m456 -117 c62 -39 88 -114 69 -199 -13 -55 -40 -90 -86 -110
-41 -17 -152 -28 -198 -20 l-36 7 0 87 c0 155 11 251 29 256 9 3 55 4 102 2
67 -1 93 -7 120 -23z m27 -447 c91 -47 121 -185 59 -277 -39 -58 -79 -73 -197
-77 -58 -2 -111 1 -118 6 -10 7 -15 58 -19 190 l-6 181 59 3 c83 4 187 -8 222
-26z"/>
<path d="M325 1280 c-8 -13 3 -30 20 -30 37 0 40 -33 40 -460 0 -228 -4 -432
-8 -452 -6 -27 -13 -38 -30 -40 -12 -2 -23 -11 -25 -20 -3 -17 14 -18 245 -18
269 0 331 8 424 56 147 74 229 243 229 474 0 279 -103 433 -322 485 -75 18
-563 22 -573 5z m559 -124 c104 -51 158 -144 178 -305 7 -62 7 -110 -1 -175
-20 -153 -65 -227 -169 -278 -60 -30 -72 -32 -166 -32 -56 1 -119 6 -142 12
l-41 12 -6 67 c-9 86 -7 568 2 648 6 59 6 60 46 72 25 8 79 11 141 10 87 -3
110 -8 158 -31z"/>
</g>
</svg>
