<?xml version="1.0" standalone="no"?>
<!DOCTYPE svg PUBLIC "-//W3C//DTD SVG 20010904//EN"
 "http://www.w3.org/TR/2001/REC-SVG-20010904/DTD/svg10.dtd">
<svg version="1.0" xmlns="http://www.w3.org/2000/svg"
 width="512.000000pt" height="512.000000pt" viewBox="0 0 512.000000 512.000000"
 preserveAspectRatio="xMidYMid meet">
<metadata>
Created by potrace 1.11, written by Peter Selinger 2001-2013
</metadata>
<g transform="translate(0.000000,512.000000) scale(0.100000,-0.100000)"
fill="#000000" stroke="none">
<path d="M0 2560 l0 -2560 2560 0 2560 0 0 2560 0 2560 -2560 0 -2560 0 0
-2560z m3070 1872 c257 -45 317 -59 481 -108 286 -85 599 -208 899 -352 l125
-60 -123 -1 c-224 -2 -412 -46 -608 -142 -237 -116 -414 -283 -524 -492 -19
-37 -37 -67 -40 -67 -3 0 -23 34 -44 76 -101 197 -341 481 -554 657 -118 97
-317 234 -402 277 -106 53 -283 117 -362 130 -40 6 -89 14 -108 17 -34 5 -33
6 30 23 86 24 266 58 365 69 44 5 217 8 385 7 290 -3 314 -5 480 -34z m-1145
-136 c69 -18 144 -47 240 -96 284 -142 538 -388 867 -835 59 -81 138 -199 138
-207 0 -2 -69 -3 -153 -3 -225 -1 -392 -44 -619 -162 -228 -118 -476 -360
-582 -570 -14 -29 -28 -53 -30 -53 -3 0 -29 47 -60 105 -94 182 -200 541 -231
784 -49 390 -27 716 63 970 l37 103 115 -5 c74 -4 150 -15 215 -31z m-439
-115 c-97 -150 -154 -440 -141 -711 18 -374 124 -772 280 -1051 30 -55 55
-101 55 -103 0 -1 -75 -3 -167 -3 -134 0 -185 -5 -253 -21 -216 -52 -376 -127
-535 -250 -109 -85 -247 -238 -305 -341 -19 -34 -40 -69 -47 -79 -11 -16 -12
-15 -8 3 2 11 9 70 15 130 17 171 28 248 61 415 138 710 370 1241 748 1719 63
79 326 361 337 361 2 0 -16 -31 -40 -69z m1302 -1792 c151 -272 320 -579 377
-684 57 -104 128 -224 159 -266 107 -148 212 -186 329 -122 91 51 116 136 82
282 -17 69 -76 202 -126 284 -16 27 -29 50 -27 52 19 14 128 85 132 85 6 0
110 -167 139 -225 31 -62 71 -181 87 -259 13 -64 8 -139 -17 -224 -22 -80
-113 -169 -210 -207 -65 -25 -81 -27 -156 -23 -110 7 -188 44 -285 133 -98 91
-118 121 -304 455 -391 700 -553 989 -590 1053 -22 38 -37 71 -33 75 16 16
151 91 160 88 5 -1 133 -225 283 -497z"/>
</g>
</svg>
