<?xml version="1.0" standalone="no"?>
<!DOCTYPE svg PUBLIC "-//W3C//DTD SVG 20010904//EN"
 "http://www.w3.org/TR/2001/REC-SVG-20010904/DTD/svg10.dtd">
<svg version="1.0" xmlns="http://www.w3.org/2000/svg"
 width="512.000000pt" height="512.000000pt" viewBox="0 0 512.000000 512.000000"
 preserveAspectRatio="xMidYMid meet">
<metadata>
Created by potrace 1.11, written by Peter Selinger 2001-2013
</metadata>
<g transform="translate(0.000000,512.000000) scale(0.100000,-0.100000)"
fill="#000000" stroke="none">
<path d="M0 2560 l0 -2560 2560 0 2560 0 0 2560 0 2560 -2560 0 -2560 0 0
-2560z m1027 783 c-4 -71 -7 -156 -7 -190 0 -60 -1 -63 -24 -63 -21 0 -25 6
-31 48 -6 45 -10 50 -58 79 -140 83 -273 112 -379 83 -85 -24 -129 -114 -103
-214 11 -42 24 -61 70 -103 56 -51 101 -74 318 -163 134 -55 227 -142 261
-243 21 -63 21 -189 -1 -253 -48 -142 -170 -240 -352 -280 -95 -21 -300 -14
-413 14 l-78 19 -15 -23 c-17 -26 -23 -28 -42 -16 -8 5 4 54 47 176 33 93 61
170 63 172 2 3 12 1 22 -2 14 -6 16 -15 10 -59 l-6 -52 71 -32 c100 -46 163
-61 256 -62 99 0 179 27 229 77 81 81 70 209 -28 301 -53 50 -70 60 -322 174
-120 55 -149 72 -201 124 -71 70 -97 131 -96 230 0 89 25 155 83 219 57 63
161 118 256 137 78 14 288 7 361 -14 l54 -15 10 29 c7 19 17 29 31 29 20 0 20
-3 14 -127z m865 77 c201 -23 305 -99 344 -253 40 -154 -22 -322 -140 -384
l-29 -15 57 -31 c73 -39 139 -113 162 -180 24 -70 24 -193 -1 -272 -27 -84
-96 -152 -185 -182 -135 -46 -305 -60 -582 -48 l-178 7 0 24 c0 16 6 24 18 24
40 1 44 13 58 196 17 226 17 635 0 867 -13 184 -17 196 -58 197 -12 0 -18 8
-18 25 l0 24 133 4 c72 1 177 4 232 5 55 1 139 -3 187 -8z m1428 -15 c271 -62
408 -237 429 -548 29 -435 -118 -694 -444 -777 -85 -22 -201 -27 -532 -22
l-203 2 0 25 c0 17 6 25 18 25 40 1 44 13 58 196 17 226 17 635 0 867 -13 184
-17 196 -58 197 -12 0 -18 8 -18 25 l0 24 123 4 c271 8 549 1 627 -18z m1242
15 c201 -23 305 -99 344 -253 40 -154 -22 -322 -140 -384 l-29 -15 57 -31 c73
-39 139 -113 162 -180 24 -70 24 -193 -1 -272 -27 -84 -96 -152 -185 -182
-135 -46 -305 -60 -582 -48 l-178 7 0 24 c0 16 6 24 18 24 40 1 44 13 58 196
17 226 17 635 0 867 -13 184 -17 196 -58 197 -12 0 -18 8 -18 25 l0 24 133 4
c72 1 177 4 232 5 55 1 139 -3 187 -8z"/>
<path d="M1654 3284 c-29 -7 -33 -32 -41 -268 l-6 -199 134 5 c153 6 201 20
248 74 67 76 69 237 4 314 -46 56 -95 73 -213 76 -58 1 -115 0 -126 -2z"/>
<path d="M1614 2685 c-8 -20 2 -404 12 -452 6 -30 9 -32 61 -39 79 -10 221 1
265 20 57 24 105 72 125 124 26 67 23 175 -6 236 -44 89 -111 117 -308 124
-129 4 -143 3 -149 -13z"/>
<path d="M2921 3274 c-30 -8 -57 -16 -59 -19 -19 -18 -29 -715 -13 -930 l6
-89 45 -15 c31 -10 93 -15 195 -15 148 -1 151 -1 217 31 160 76 237 233 238
489 1 311 -107 492 -327 549 -72 19 -231 18 -302 -1z"/>
<path d="M4324 3284 c-29 -7 -33 -32 -41 -268 l-6 -199 134 5 c153 6 201 20
248 74 67 76 69 237 4 314 -46 56 -95 73 -213 76 -58 1 -115 0 -126 -2z"/>
<path d="M4284 2685 c-8 -20 2 -404 12 -452 6 -30 9 -32 61 -39 79 -10 221 1
265 20 57 24 105 72 125 124 26 67 23 175 -6 236 -44 89 -111 117 -308 124
-129 4 -143 3 -149 -13z"/>
</g>
</svg>
